<?xml version="1.0" encoding="UTF-8"?><svg xmlns="http://www.w3.org/2000/svg" xmlns:xlink="http://www.w3.org/1999/xlink" fill-opacity="1" color-rendering="auto" color-interpolation="auto" text-rendering="auto" stroke="black" stroke-linecap="square" width="388" stroke-miterlimit="10" shape-rendering="auto" stroke-opacity="1" fill="black" stroke-dasharray="none" font-weight="normal" stroke-width="1" height="570" font-family="'Dialog'" font-style="normal" stroke-linejoin="miter" font-size="12" stroke-dashoffset="0" image-rendering="auto">
  <!--Generated by ySVG 2.5-->
  <defs id="genericDefs"/>
  <g>
    <defs id="defs1">
      <clipPath clipPathUnits="userSpaceOnUse" id="clipPath1">
        <path d="M0 0 L388 0 L388 570 L0 570 L0 0 Z"/>
      </clipPath>
      <clipPath clipPathUnits="userSpaceOnUse" id="clipPath2">
        <path d="M217 115 L605 115 L605 685 L217 685 L217 115 Z"/>
      </clipPath>
    </defs>
    <g fill="white" text-rendering="geometricPrecision" shape-rendering="geometricPrecision" transform="translate(-217,-115)" stroke="white">
      <rect x="217" width="388" height="570" y="115" clip-path="url(#clipPath2)" stroke="none"/>
    </g>
    <g text-rendering="geometricPrecision" stroke-miterlimit="1.45" shape-rendering="geometricPrecision" font-family="sans-serif" transform="matrix(1,0,0,1,-217,-115)" stroke-linecap="butt">
      <text x="238.8" xml:space="preserve" y="195.1445" clip-path="url(#clipPath2)" stroke="none">Geometry Processing</text>
      <rect fill="none" x="232.8" width="332.2" height="265.92" y="177.08" clip-path="url(#clipPath2)"/>
      <text x="238.8" xml:space="preserve" y="461.0645" clip-path="url(#clipPath2)" stroke="none">Rasterisation</text>
      <rect fill="none" x="232.8" width="332.2" height="177" y="443" clip-path="url(#clipPath2)"/>
      <text x="396.4746" xml:space="preserve" y="150.2139" clip-path="url(#clipPath2)" stroke="none">Geometry specification</text>
      <rect fill="none" x="376" width="163" height="30" y="130.5" clip-path="url(#clipPath2)"/>
      <text x="397.1426" xml:space="preserve" y="239.7139" clip-path="url(#clipPath2)" stroke="none">Vertex transformations</text>
      <rect fill="none" x="376" width="163" height="30" y="220" clip-path="url(#clipPath2)"/>
      <text x="412.4766" xml:space="preserve" y="323.3389" clip-path="url(#clipPath2)" stroke="none">Vertex projection</text>
      <rect fill="none" x="376" width="163" height="30" y="303.625" clip-path="url(#clipPath2)"/>
      <text x="401.8008" xml:space="preserve" y="493.7139" clip-path="url(#clipPath2)" stroke="none">Fragment generation</text>
      <rect fill="none" x="376" width="163" height="30" y="474" clip-path="url(#clipPath2)"/>
      <text x="401.1416" xml:space="preserve" y="576.7139" clip-path="url(#clipPath2)" stroke="none">Fragment processing</text>
      <rect fill="none" x="376" width="163" height="30" y="557" clip-path="url(#clipPath2)"/>
      <text x="396.1377" xml:space="preserve" y="406.9639" clip-path="url(#clipPath2)" stroke="none">Vertex post-processing</text>
      <rect fill="none" x="376" width="163" height="30" y="387.25" clip-path="url(#clipPath2)"/>
      <text x="424.8223" xml:space="preserve" y="659.7139" clip-path="url(#clipPath2)" stroke="none">Framebuffer</text>
      <rect fill="none" x="376" width="163" height="30" y="640" clip-path="url(#clipPath2)"/>
      <circle stroke-linecap="square" clip-path="url(#clipPath2)" r="2.5" cx="477.1996" cy="200.1029" stroke="none" stroke-miterlimit="10"/>
      <circle fill="none" r="2.5" clip-path="url(#clipPath2)" cx="477.1996" cy="200.1029"/>
      <circle stroke-linecap="square" clip-path="url(#clipPath2)" r="2.5" cx="488.7193" cy="212.5673" stroke="none" stroke-miterlimit="10"/>
      <circle fill="none" r="2.5" clip-path="url(#clipPath2)" cx="488.7193" cy="212.5673"/>
      <circle stroke-linecap="square" clip-path="url(#clipPath2)" r="2.5" cx="500.6826" cy="200.1029" stroke="none" stroke-miterlimit="10"/>
      <circle fill="none" r="2.5" clip-path="url(#clipPath2)" cx="500.6826" cy="200.1029"/>
      <circle stroke-linecap="square" clip-path="url(#clipPath2)" r="2.5" cx="488.7193" cy="187.5" stroke="none" stroke-miterlimit="10"/>
      <circle fill="none" r="2.5" clip-path="url(#clipPath2)" cx="488.7193" cy="187.5"/>
      <circle stroke-linecap="square" clip-path="url(#clipPath2)" r="2.5" cx="500.6826" cy="187.5" stroke="none" stroke-miterlimit="10"/>
      <circle fill="none" r="2.5" clip-path="url(#clipPath2)" cx="500.6826" cy="187.5"/>
      <circle stroke-linecap="square" clip-path="url(#clipPath2)" r="2.5" cx="480" cy="296.1923" stroke="none" stroke-miterlimit="10"/>
      <circle fill="none" r="2.5" clip-path="url(#clipPath2)" cx="480" cy="296.1923"/>
      <circle stroke-linecap="square" clip-path="url(#clipPath2)" r="2.5" cx="508.6996" cy="296.1923" stroke="none" stroke-miterlimit="10"/>
      <circle fill="none" r="2.5" clip-path="url(#clipPath2)" cx="508.6996" cy="296.1923"/>
      <circle stroke-linecap="square" clip-path="url(#clipPath2)" r="2.5" cx="480" cy="271.125" stroke="none" stroke-miterlimit="10"/>
      <circle fill="none" r="2.5" clip-path="url(#clipPath2)" cx="480" cy="271.125"/>
      <circle stroke-linecap="square" clip-path="url(#clipPath2)" r="2.5" cx="508.6996" cy="271.125" stroke="none" stroke-miterlimit="10"/>
      <circle fill="none" r="2.5" clip-path="url(#clipPath2)" cx="508.6996" cy="271.125"/>
      <circle stroke-linecap="square" clip-path="url(#clipPath2)" r="2.5" cx="495.2152" cy="255.2336" stroke="none" stroke-miterlimit="10"/>
      <circle fill="none" r="2.5" clip-path="url(#clipPath2)" cx="495.2152" cy="255.2336"/>
      <circle stroke-linecap="square" clip-path="url(#clipPath2)" r="2.5" cx="480" cy="379.8173" stroke="none" stroke-miterlimit="10"/>
      <circle fill="none" r="2.5" clip-path="url(#clipPath2)" cx="480" cy="379.8173"/>
      <circle stroke-linecap="square" clip-path="url(#clipPath2)" r="2.5" cx="508.6996" cy="379.8173" stroke="none" stroke-miterlimit="10"/>
      <circle fill="none" r="2.5" clip-path="url(#clipPath2)" cx="508.6996" cy="379.8173"/>
      <circle stroke-linecap="square" clip-path="url(#clipPath2)" r="2.5" cx="480" cy="354.75" stroke="none" stroke-miterlimit="10"/>
      <circle fill="none" r="2.5" clip-path="url(#clipPath2)" cx="480" cy="354.75"/>
      <circle stroke-linecap="square" clip-path="url(#clipPath2)" r="2.5" cx="508.6996" cy="354.75" stroke="none" stroke-miterlimit="10"/>
      <circle fill="none" r="2.5" clip-path="url(#clipPath2)" cx="508.6996" cy="354.75"/>
      <circle stroke-linecap="square" clip-path="url(#clipPath2)" r="2.5" cx="495.2152" cy="338.8586" stroke="none" stroke-miterlimit="10"/>
      <circle fill="none" r="2.5" clip-path="url(#clipPath2)" cx="495.2152" cy="338.8586"/>
      <circle stroke-linecap="square" clip-path="url(#clipPath2)" r="2.5" cx="480" cy="465.5673" stroke="none" stroke-miterlimit="10"/>
      <circle fill="none" r="2.5" clip-path="url(#clipPath2)" cx="480" cy="465.5673"/>
      <circle stroke-linecap="square" clip-path="url(#clipPath2)" r="2.5" cx="508.6996" cy="465.5673" stroke="none" stroke-miterlimit="10"/>
      <circle fill="none" r="2.5" clip-path="url(#clipPath2)" cx="508.6996" cy="465.5673"/>
      <circle stroke-linecap="square" clip-path="url(#clipPath2)" r="2.5" cx="480" cy="440.5" stroke="none" stroke-miterlimit="10"/>
      <circle fill="none" r="2.5" clip-path="url(#clipPath2)" cx="480" cy="440.5"/>
      <circle stroke-linecap="square" clip-path="url(#clipPath2)" r="2.5" cx="508.6996" cy="440.5" stroke="none" stroke-miterlimit="10"/>
      <circle fill="none" r="2.5" clip-path="url(#clipPath2)" cx="508.6996" cy="440.5"/>
      <circle stroke-linecap="square" clip-path="url(#clipPath2)" r="2.5" cx="495.2152" cy="424.6086" stroke="none" stroke-miterlimit="10"/>
      <circle fill="none" r="2.5" clip-path="url(#clipPath2)" cx="495.2152" cy="424.6086"/>
      <circle stroke-linecap="square" clip-path="url(#clipPath2)" r="2.5" cx="480" cy="549.5673" stroke="none" stroke-miterlimit="10"/>
      <circle fill="none" r="2.5" clip-path="url(#clipPath2)" cx="480" cy="549.5673"/>
      <circle stroke-linecap="square" clip-path="url(#clipPath2)" r="2.5" cx="508.6996" cy="549.5673" stroke="none" stroke-miterlimit="10"/>
      <circle fill="none" r="2.5" clip-path="url(#clipPath2)" cx="508.6996" cy="549.5673"/>
      <circle stroke-linecap="square" clip-path="url(#clipPath2)" r="2.5" cx="480" cy="524.5" stroke="none" stroke-miterlimit="10"/>
      <circle fill="none" r="2.5" clip-path="url(#clipPath2)" cx="480" cy="524.5"/>
      <circle stroke-linecap="square" clip-path="url(#clipPath2)" r="2.5" cx="508.6996" cy="524.5" stroke="none" stroke-miterlimit="10"/>
      <circle fill="none" r="2.5" clip-path="url(#clipPath2)" cx="508.6996" cy="524.5"/>
      <circle stroke-linecap="square" clip-path="url(#clipPath2)" r="2.5" cx="495.2152" cy="508.6086" stroke="none" stroke-miterlimit="10"/>
      <circle fill="none" r="2.5" clip-path="url(#clipPath2)" cx="495.2152" cy="508.6086"/>
    </g>
    <g fill="yellow" text-rendering="geometricPrecision" shape-rendering="geometricPrecision" transform="matrix(1,0,0,1,-217,-115)" stroke="yellow">
      <rect x="497.5" width="5" height="5" y="632.5" clip-path="url(#clipPath2)" stroke="none"/>
    </g>
    <g text-rendering="geometricPrecision" stroke-miterlimit="1.45" shape-rendering="geometricPrecision" transform="matrix(1,0,0,1,-217,-115)" stroke-linecap="butt">
      <rect fill="none" x="497.5" width="5" height="5" y="632.5" clip-path="url(#clipPath2)"/>
    </g>
    <g fill="yellow" text-rendering="geometricPrecision" shape-rendering="geometricPrecision" transform="matrix(1,0,0,1,-217,-115)" stroke="yellow">
      <rect x="492.5" width="5" height="5" y="632.5" clip-path="url(#clipPath2)" stroke="none"/>
    </g>
    <g text-rendering="geometricPrecision" stroke-miterlimit="1.45" shape-rendering="geometricPrecision" transform="matrix(1,0,0,1,-217,-115)" stroke-linecap="butt">
      <rect fill="none" x="492.5" width="5" height="5" y="632.5" clip-path="url(#clipPath2)"/>
    </g>
    <g fill="yellow" text-rendering="geometricPrecision" shape-rendering="geometricPrecision" transform="matrix(1,0,0,1,-217,-115)" stroke="yellow">
      <rect x="487.5" width="5" height="5" y="632.5" clip-path="url(#clipPath2)" stroke="none"/>
    </g>
    <g text-rendering="geometricPrecision" stroke-miterlimit="1.45" shape-rendering="geometricPrecision" transform="matrix(1,0,0,1,-217,-115)" stroke-linecap="butt">
      <rect fill="none" x="487.5" width="5" height="5" y="632.5" clip-path="url(#clipPath2)"/>
    </g>
    <g fill="yellow" text-rendering="geometricPrecision" shape-rendering="geometricPrecision" transform="matrix(1,0,0,1,-217,-115)" stroke="yellow">
      <rect x="482.5" width="5" height="5" y="632.5" clip-path="url(#clipPath2)" stroke="none"/>
    </g>
    <g text-rendering="geometricPrecision" stroke-miterlimit="1.45" shape-rendering="geometricPrecision" transform="matrix(1,0,0,1,-217,-115)" stroke-linecap="butt">
      <rect fill="none" x="482.5" width="5" height="5" y="632.5" clip-path="url(#clipPath2)"/>
    </g>
    <g fill="yellow" text-rendering="geometricPrecision" shape-rendering="geometricPrecision" transform="matrix(1,0,0,1,-217,-115)" stroke="yellow">
      <rect x="492.5" width="5" height="5" y="627.5" clip-path="url(#clipPath2)" stroke="none"/>
    </g>
    <g text-rendering="geometricPrecision" stroke-miterlimit="1.45" shape-rendering="geometricPrecision" transform="matrix(1,0,0,1,-217,-115)" stroke-linecap="butt">
      <rect fill="none" x="492.5" width="5" height="5" y="627.5" clip-path="url(#clipPath2)"/>
    </g>
    <g fill="yellow" text-rendering="geometricPrecision" shape-rendering="geometricPrecision" transform="matrix(1,0,0,1,-217,-115)" stroke="yellow">
      <rect x="487.5" width="5" height="5" y="627.5" clip-path="url(#clipPath2)" stroke="none"/>
    </g>
    <g text-rendering="geometricPrecision" stroke-miterlimit="1.45" shape-rendering="geometricPrecision" transform="matrix(1,0,0,1,-217,-115)" stroke-linecap="butt">
      <rect fill="none" x="487.5" width="5" height="5" y="627.5" clip-path="url(#clipPath2)"/>
    </g>
    <g fill="yellow" text-rendering="geometricPrecision" shape-rendering="geometricPrecision" transform="matrix(1,0,0,1,-217,-115)" stroke="yellow">
      <rect x="482.5" width="5" height="5" y="627.5" clip-path="url(#clipPath2)" stroke="none"/>
    </g>
    <g text-rendering="geometricPrecision" stroke-miterlimit="1.45" shape-rendering="geometricPrecision" transform="matrix(1,0,0,1,-217,-115)" stroke-linecap="butt">
      <rect fill="none" x="482.5" width="5" height="5" y="627.5" clip-path="url(#clipPath2)"/>
    </g>
    <g fill="yellow" text-rendering="geometricPrecision" shape-rendering="geometricPrecision" transform="matrix(1,0,0,1,-217,-115)" stroke="yellow">
      <rect x="502.5" width="5" height="5" y="622.5" clip-path="url(#clipPath2)" stroke="none"/>
    </g>
    <g text-rendering="geometricPrecision" stroke-miterlimit="1.45" shape-rendering="geometricPrecision" transform="matrix(1,0,0,1,-217,-115)" stroke-linecap="butt">
      <rect fill="none" x="502.5" width="5" height="5" y="622.5" clip-path="url(#clipPath2)"/>
    </g>
    <g fill="yellow" text-rendering="geometricPrecision" shape-rendering="geometricPrecision" transform="matrix(1,0,0,1,-217,-115)" stroke="yellow">
      <rect x="507.5" width="5" height="5" y="622.5" clip-path="url(#clipPath2)" stroke="none"/>
    </g>
    <g text-rendering="geometricPrecision" stroke-miterlimit="1.45" shape-rendering="geometricPrecision" transform="matrix(1,0,0,1,-217,-115)" stroke-linecap="butt">
      <rect fill="none" x="507.5" width="5" height="5" y="622.5" clip-path="url(#clipPath2)"/>
    </g>
    <g fill="yellow" text-rendering="geometricPrecision" shape-rendering="geometricPrecision" transform="matrix(1,0,0,1,-217,-115)" stroke="yellow">
      <rect x="507.5" width="5" height="5" y="627.5" clip-path="url(#clipPath2)" stroke="none"/>
    </g>
    <g text-rendering="geometricPrecision" stroke-miterlimit="1.45" shape-rendering="geometricPrecision" transform="matrix(1,0,0,1,-217,-115)" stroke-linecap="butt">
      <rect fill="none" x="507.5" width="5" height="5" y="627.5" clip-path="url(#clipPath2)"/>
    </g>
    <g fill="yellow" text-rendering="geometricPrecision" shape-rendering="geometricPrecision" transform="matrix(1,0,0,1,-217,-115)" stroke="yellow">
      <rect x="507.5" width="5" height="5" y="632.5" clip-path="url(#clipPath2)" stroke="none"/>
    </g>
    <g text-rendering="geometricPrecision" stroke-miterlimit="1.45" shape-rendering="geometricPrecision" transform="matrix(1,0,0,1,-217,-115)" stroke-linecap="butt">
      <rect fill="none" x="507.5" width="5" height="5" y="632.5" clip-path="url(#clipPath2)"/>
    </g>
    <g fill="yellow" text-rendering="geometricPrecision" shape-rendering="geometricPrecision" transform="matrix(1,0,0,1,-217,-115)" stroke="yellow">
      <rect x="502.5" width="5" height="5" y="632.5" clip-path="url(#clipPath2)" stroke="none"/>
    </g>
    <g text-rendering="geometricPrecision" stroke-miterlimit="1.45" shape-rendering="geometricPrecision" transform="matrix(1,0,0,1,-217,-115)" stroke-linecap="butt">
      <rect fill="none" x="502.5" width="5" height="5" y="632.5" clip-path="url(#clipPath2)"/>
    </g>
    <g fill="yellow" text-rendering="geometricPrecision" shape-rendering="geometricPrecision" transform="matrix(1,0,0,1,-217,-115)" stroke="yellow">
      <rect x="502.5" width="5" height="5" y="627.5" clip-path="url(#clipPath2)" stroke="none"/>
    </g>
    <g text-rendering="geometricPrecision" stroke-miterlimit="1.45" shape-rendering="geometricPrecision" transform="matrix(1,0,0,1,-217,-115)" stroke-linecap="butt">
      <rect fill="none" x="502.5" width="5" height="5" y="627.5" clip-path="url(#clipPath2)"/>
    </g>
    <g fill="yellow" text-rendering="geometricPrecision" shape-rendering="geometricPrecision" transform="matrix(1,0,0,1,-217,-115)" stroke="yellow">
      <rect x="497.5" width="5" height="5" y="627.5" clip-path="url(#clipPath2)" stroke="none"/>
    </g>
    <g text-rendering="geometricPrecision" stroke-miterlimit="1.45" shape-rendering="geometricPrecision" transform="matrix(1,0,0,1,-217,-115)" stroke-linecap="butt">
      <rect fill="none" x="497.5" width="5" height="5" y="627.5" clip-path="url(#clipPath2)"/>
    </g>
    <g fill="yellow" text-rendering="geometricPrecision" shape-rendering="geometricPrecision" transform="matrix(1,0,0,1,-217,-115)" stroke="yellow">
      <rect x="497.5" width="5" height="5" y="622.5" clip-path="url(#clipPath2)" stroke="none"/>
    </g>
    <g text-rendering="geometricPrecision" stroke-miterlimit="1.45" shape-rendering="geometricPrecision" transform="matrix(1,0,0,1,-217,-115)" stroke-linecap="butt">
      <rect fill="none" x="497.5" width="5" height="5" y="622.5" clip-path="url(#clipPath2)"/>
    </g>
    <g fill="yellow" text-rendering="geometricPrecision" shape-rendering="geometricPrecision" transform="matrix(1,0,0,1,-217,-115)" stroke="yellow">
      <rect x="492.5" width="5" height="5" y="622.5" clip-path="url(#clipPath2)" stroke="none"/>
    </g>
    <g text-rendering="geometricPrecision" stroke-miterlimit="1.45" shape-rendering="geometricPrecision" transform="matrix(1,0,0,1,-217,-115)" stroke-linecap="butt">
      <rect fill="none" x="492.5" width="5" height="5" y="622.5" clip-path="url(#clipPath2)"/>
    </g>
    <g fill="yellow" text-rendering="geometricPrecision" shape-rendering="geometricPrecision" transform="matrix(1,0,0,1,-217,-115)" stroke="yellow">
      <rect x="487.5" width="5" height="5" y="622.5" clip-path="url(#clipPath2)" stroke="none"/>
    </g>
    <g text-rendering="geometricPrecision" stroke-miterlimit="1.45" shape-rendering="geometricPrecision" transform="matrix(1,0,0,1,-217,-115)" stroke-linecap="butt">
      <rect fill="none" x="487.5" width="5" height="5" y="622.5" clip-path="url(#clipPath2)"/>
    </g>
    <g fill="yellow" text-rendering="geometricPrecision" shape-rendering="geometricPrecision" transform="matrix(1,0,0,1,-217,-115)" stroke="yellow">
      <rect x="482.5" width="5" height="5" y="622.5" clip-path="url(#clipPath2)" stroke="none"/>
    </g>
    <g text-rendering="geometricPrecision" stroke-miterlimit="1.45" shape-rendering="geometricPrecision" transform="matrix(1,0,0,1,-217,-115)" stroke-linecap="butt">
      <rect fill="none" x="482.5" width="5" height="5" y="622.5" clip-path="url(#clipPath2)"/>
    </g>
    <g fill="yellow" text-rendering="geometricPrecision" shape-rendering="geometricPrecision" transform="matrix(1,0,0,1,-217,-115)" stroke="yellow">
      <rect x="507.5" width="5" height="5" y="617.5" clip-path="url(#clipPath2)" stroke="none"/>
    </g>
    <g text-rendering="geometricPrecision" stroke-miterlimit="1.45" shape-rendering="geometricPrecision" transform="matrix(1,0,0,1,-217,-115)" stroke-linecap="butt">
      <rect fill="none" x="507.5" width="5" height="5" y="617.5" clip-path="url(#clipPath2)"/>
    </g>
    <g fill="yellow" text-rendering="geometricPrecision" shape-rendering="geometricPrecision" transform="matrix(1,0,0,1,-217,-115)" stroke="yellow">
      <rect x="502.5" width="5" height="5" y="617.5" clip-path="url(#clipPath2)" stroke="none"/>
    </g>
    <g text-rendering="geometricPrecision" stroke-miterlimit="1.45" shape-rendering="geometricPrecision" transform="matrix(1,0,0,1,-217,-115)" stroke-linecap="butt">
      <rect fill="none" x="502.5" width="5" height="5" y="617.5" clip-path="url(#clipPath2)"/>
    </g>
    <g fill="yellow" text-rendering="geometricPrecision" shape-rendering="geometricPrecision" transform="matrix(1,0,0,1,-217,-115)" stroke="yellow">
      <rect x="497.5" width="5" height="5" y="617.5" clip-path="url(#clipPath2)" stroke="none"/>
    </g>
    <g text-rendering="geometricPrecision" stroke-miterlimit="1.45" shape-rendering="geometricPrecision" transform="matrix(1,0,0,1,-217,-115)" stroke-linecap="butt">
      <rect fill="none" x="497.5" width="5" height="5" y="617.5" clip-path="url(#clipPath2)"/>
    </g>
    <g fill="yellow" text-rendering="geometricPrecision" shape-rendering="geometricPrecision" transform="matrix(1,0,0,1,-217,-115)" stroke="yellow">
      <rect x="492.5" width="5" height="5" y="617.5" clip-path="url(#clipPath2)" stroke="none"/>
    </g>
    <g text-rendering="geometricPrecision" stroke-miterlimit="1.45" shape-rendering="geometricPrecision" transform="matrix(1,0,0,1,-217,-115)" stroke-linecap="butt">
      <rect fill="none" x="492.5" width="5" height="5" y="617.5" clip-path="url(#clipPath2)"/>
    </g>
    <g fill="yellow" text-rendering="geometricPrecision" shape-rendering="geometricPrecision" transform="matrix(1,0,0,1,-217,-115)" stroke="yellow">
      <rect x="487.5" width="5" height="5" y="617.5" clip-path="url(#clipPath2)" stroke="none"/>
    </g>
    <g text-rendering="geometricPrecision" stroke-miterlimit="1.45" shape-rendering="geometricPrecision" transform="matrix(1,0,0,1,-217,-115)" stroke-linecap="butt">
      <rect fill="none" x="487.5" width="5" height="5" y="617.5" clip-path="url(#clipPath2)"/>
    </g>
    <g fill="yellow" text-rendering="geometricPrecision" shape-rendering="geometricPrecision" transform="matrix(1,0,0,1,-217,-115)" stroke="yellow">
      <rect x="482.5" width="5" height="5" y="617.5" clip-path="url(#clipPath2)" stroke="none"/>
    </g>
    <g text-rendering="geometricPrecision" stroke-miterlimit="1.45" shape-rendering="geometricPrecision" transform="matrix(1,0,0,1,-217,-115)" stroke-linecap="butt">
      <rect fill="none" x="482.5" width="5" height="5" y="617.5" clip-path="url(#clipPath2)"/>
    </g>
    <g fill="yellow" text-rendering="geometricPrecision" shape-rendering="geometricPrecision" transform="matrix(1,0,0,1,-217,-115)" stroke="yellow">
      <rect x="507.5" width="5" height="5" y="612.5" clip-path="url(#clipPath2)" stroke="none"/>
    </g>
    <g text-rendering="geometricPrecision" stroke-miterlimit="1.45" shape-rendering="geometricPrecision" transform="matrix(1,0,0,1,-217,-115)" stroke-linecap="butt">
      <rect fill="none" x="507.5" width="5" height="5" y="612.5" clip-path="url(#clipPath2)"/>
    </g>
    <g fill="yellow" text-rendering="geometricPrecision" shape-rendering="geometricPrecision" transform="matrix(1,0,0,1,-217,-115)" stroke="yellow">
      <rect x="502.5" width="5" height="5" y="612.5" clip-path="url(#clipPath2)" stroke="none"/>
    </g>
    <g text-rendering="geometricPrecision" stroke-miterlimit="1.45" shape-rendering="geometricPrecision" transform="matrix(1,0,0,1,-217,-115)" stroke-linecap="butt">
      <rect fill="none" x="502.5" width="5" height="5" y="612.5" clip-path="url(#clipPath2)"/>
    </g>
    <g fill="yellow" text-rendering="geometricPrecision" shape-rendering="geometricPrecision" transform="matrix(1,0,0,1,-217,-115)" stroke="yellow">
      <rect x="497.5" width="5" height="5" y="612.5" clip-path="url(#clipPath2)" stroke="none"/>
    </g>
    <g text-rendering="geometricPrecision" stroke-miterlimit="1.45" shape-rendering="geometricPrecision" transform="matrix(1,0,0,1,-217,-115)" stroke-linecap="butt">
      <rect fill="none" x="497.5" width="5" height="5" y="612.5" clip-path="url(#clipPath2)"/>
    </g>
    <g fill="yellow" text-rendering="geometricPrecision" shape-rendering="geometricPrecision" transform="matrix(1,0,0,1,-217,-115)" stroke="yellow">
      <rect x="492.5" width="5" height="5" y="612.5" clip-path="url(#clipPath2)" stroke="none"/>
    </g>
    <g text-rendering="geometricPrecision" stroke-miterlimit="1.45" shape-rendering="geometricPrecision" transform="matrix(1,0,0,1,-217,-115)" stroke-linecap="butt">
      <rect fill="none" x="492.5" width="5" height="5" y="612.5" clip-path="url(#clipPath2)"/>
    </g>
    <g fill="yellow" text-rendering="geometricPrecision" shape-rendering="geometricPrecision" transform="matrix(1,0,0,1,-217,-115)" stroke="yellow">
      <rect x="487.5" width="5" height="5" y="612.5" clip-path="url(#clipPath2)" stroke="none"/>
    </g>
    <g text-rendering="geometricPrecision" stroke-miterlimit="1.45" shape-rendering="geometricPrecision" transform="matrix(1,0,0,1,-217,-115)" stroke-linecap="butt">
      <rect fill="none" x="487.5" width="5" height="5" y="612.5" clip-path="url(#clipPath2)"/>
    </g>
    <g fill="yellow" text-rendering="geometricPrecision" shape-rendering="geometricPrecision" transform="matrix(1,0,0,1,-217,-115)" stroke="yellow">
      <rect x="482.5" width="5" height="5" y="612.5" clip-path="url(#clipPath2)" stroke="none"/>
    </g>
    <g text-rendering="geometricPrecision" stroke-miterlimit="1.45" shape-rendering="geometricPrecision" transform="matrix(1,0,0,1,-217,-115)" stroke-linecap="butt">
      <rect fill="none" x="482.5" width="5" height="5" y="612.5" clip-path="url(#clipPath2)"/>
    </g>
    <g fill="yellow" text-rendering="geometricPrecision" shape-rendering="geometricPrecision" transform="matrix(1,0,0,1,-217,-115)" stroke="yellow">
      <rect x="477.5" width="5" height="5" y="632.5" clip-path="url(#clipPath2)" stroke="none"/>
    </g>
    <g text-rendering="geometricPrecision" stroke-miterlimit="1.45" shape-rendering="geometricPrecision" transform="matrix(1,0,0,1,-217,-115)" stroke-linecap="butt">
      <rect fill="none" x="477.5" width="5" height="5" y="632.5" clip-path="url(#clipPath2)"/>
    </g>
    <g fill="yellow" text-rendering="geometricPrecision" shape-rendering="geometricPrecision" transform="matrix(1,0,0,1,-217,-115)" stroke="yellow">
      <rect x="477.5" width="5" height="5" y="627.5" clip-path="url(#clipPath2)" stroke="none"/>
    </g>
    <g text-rendering="geometricPrecision" stroke-miterlimit="1.45" shape-rendering="geometricPrecision" transform="matrix(1,0,0,1,-217,-115)" stroke-linecap="butt">
      <rect fill="none" x="477.5" width="5" height="5" y="627.5" clip-path="url(#clipPath2)"/>
    </g>
    <g fill="yellow" text-rendering="geometricPrecision" shape-rendering="geometricPrecision" transform="matrix(1,0,0,1,-217,-115)" stroke="yellow">
      <rect x="477.5" width="5" height="5" y="622.5" clip-path="url(#clipPath2)" stroke="none"/>
    </g>
    <g text-rendering="geometricPrecision" stroke-miterlimit="1.45" shape-rendering="geometricPrecision" transform="matrix(1,0,0,1,-217,-115)" stroke-linecap="butt">
      <rect fill="none" x="477.5" width="5" height="5" y="622.5" clip-path="url(#clipPath2)"/>
    </g>
    <g fill="yellow" text-rendering="geometricPrecision" shape-rendering="geometricPrecision" transform="matrix(1,0,0,1,-217,-115)" stroke="yellow">
      <rect x="477.5" width="5" height="5" y="617.5" clip-path="url(#clipPath2)" stroke="none"/>
    </g>
    <g text-rendering="geometricPrecision" stroke-miterlimit="1.45" shape-rendering="geometricPrecision" transform="matrix(1,0,0,1,-217,-115)" stroke-linecap="butt">
      <rect fill="none" x="477.5" width="5" height="5" y="617.5" clip-path="url(#clipPath2)"/>
    </g>
    <g fill="yellow" text-rendering="geometricPrecision" shape-rendering="geometricPrecision" transform="matrix(1,0,0,1,-217,-115)" stroke="yellow">
      <rect x="477.5" width="5" height="5" y="612.5" clip-path="url(#clipPath2)" stroke="none"/>
    </g>
    <g text-rendering="geometricPrecision" stroke-miterlimit="1.45" shape-rendering="geometricPrecision" transform="matrix(1,0,0,1,-217,-115)" stroke-linecap="butt">
      <rect fill="none" x="477.5" width="5" height="5" y="612.5" clip-path="url(#clipPath2)"/>
    </g>
    <g fill="maroon" text-rendering="geometricPrecision" shape-rendering="geometricPrecision" transform="matrix(1,0,0,1,-217,-115)" stroke="maroon">
      <rect x="507.5" width="5" height="5" y="607.5" clip-path="url(#clipPath2)" stroke="none"/>
    </g>
    <g text-rendering="geometricPrecision" stroke-miterlimit="1.45" shape-rendering="geometricPrecision" transform="matrix(1,0,0,1,-217,-115)" stroke-linecap="butt">
      <rect fill="none" x="507.5" width="5" height="5" y="607.5" clip-path="url(#clipPath2)"/>
    </g>
    <g fill="maroon" text-rendering="geometricPrecision" shape-rendering="geometricPrecision" transform="matrix(1,0,0,1,-217,-115)" stroke="maroon">
      <rect x="502.5" width="5" height="5" y="607.5" clip-path="url(#clipPath2)" stroke="none"/>
    </g>
    <g text-rendering="geometricPrecision" stroke-miterlimit="1.45" shape-rendering="geometricPrecision" transform="matrix(1,0,0,1,-217,-115)" stroke-linecap="butt">
      <rect fill="none" x="502.5" width="5" height="5" y="607.5" clip-path="url(#clipPath2)"/>
    </g>
    <g fill="maroon" text-rendering="geometricPrecision" shape-rendering="geometricPrecision" transform="matrix(1,0,0,1,-217,-115)" stroke="maroon">
      <rect x="497.5" width="5" height="5" y="607.5" clip-path="url(#clipPath2)" stroke="none"/>
    </g>
    <g text-rendering="geometricPrecision" stroke-miterlimit="1.45" shape-rendering="geometricPrecision" transform="matrix(1,0,0,1,-217,-115)" stroke-linecap="butt">
      <rect fill="none" x="497.5" width="5" height="5" y="607.5" clip-path="url(#clipPath2)"/>
    </g>
    <g fill="maroon" text-rendering="geometricPrecision" shape-rendering="geometricPrecision" transform="matrix(1,0,0,1,-217,-115)" stroke="maroon">
      <rect x="502.5" width="5" height="5" y="602.5" clip-path="url(#clipPath2)" stroke="none"/>
    </g>
    <g text-rendering="geometricPrecision" stroke-miterlimit="1.45" shape-rendering="geometricPrecision" transform="matrix(1,0,0,1,-217,-115)" stroke-linecap="butt">
      <rect fill="none" x="502.5" width="5" height="5" y="602.5" clip-path="url(#clipPath2)"/>
    </g>
    <g fill="maroon" text-rendering="geometricPrecision" shape-rendering="geometricPrecision" transform="matrix(1,0,0,1,-217,-115)" stroke="maroon">
      <rect x="497.5" width="5" height="5" y="602.5" clip-path="url(#clipPath2)" stroke="none"/>
    </g>
    <g text-rendering="geometricPrecision" stroke-miterlimit="1.45" shape-rendering="geometricPrecision" transform="matrix(1,0,0,1,-217,-115)" stroke-linecap="butt">
      <rect fill="none" x="497.5" width="5" height="5" y="602.5" clip-path="url(#clipPath2)"/>
    </g>
    <g fill="maroon" text-rendering="geometricPrecision" shape-rendering="geometricPrecision" transform="matrix(1,0,0,1,-217,-115)" stroke="maroon">
      <rect x="477.5" width="5" height="5" y="607.5" clip-path="url(#clipPath2)" stroke="none"/>
    </g>
    <g text-rendering="geometricPrecision" stroke-miterlimit="1.45" shape-rendering="geometricPrecision" transform="matrix(1,0,0,1,-217,-115)" stroke-linecap="butt">
      <rect fill="none" x="477.5" width="5" height="5" y="607.5" clip-path="url(#clipPath2)"/>
    </g>
    <g fill="maroon" text-rendering="geometricPrecision" shape-rendering="geometricPrecision" transform="matrix(1,0,0,1,-217,-115)" stroke="maroon">
      <rect x="482.5" width="5" height="5" y="607.5" clip-path="url(#clipPath2)" stroke="none"/>
    </g>
    <g text-rendering="geometricPrecision" stroke-miterlimit="1.45" shape-rendering="geometricPrecision" transform="matrix(1,0,0,1,-217,-115)" stroke-linecap="butt">
      <rect fill="none" x="482.5" width="5" height="5" y="607.5" clip-path="url(#clipPath2)"/>
    </g>
    <g fill="maroon" text-rendering="geometricPrecision" shape-rendering="geometricPrecision" transform="matrix(1,0,0,1,-217,-115)" stroke="maroon">
      <rect x="487.321" width="5" height="5" y="607.5" clip-path="url(#clipPath2)" stroke="none"/>
    </g>
    <g text-rendering="geometricPrecision" stroke-miterlimit="1.45" shape-rendering="geometricPrecision" transform="matrix(1,0,0,1,-217,-115)" stroke-linecap="butt">
      <rect fill="none" x="487.321" width="5" height="5" y="607.5" clip-path="url(#clipPath2)"/>
    </g>
    <g fill="maroon" text-rendering="geometricPrecision" shape-rendering="geometricPrecision" transform="matrix(1,0,0,1,-217,-115)" stroke="maroon">
      <rect x="482.5" width="5" height="5" y="602.5" clip-path="url(#clipPath2)" stroke="none"/>
    </g>
    <g text-rendering="geometricPrecision" stroke-miterlimit="1.45" shape-rendering="geometricPrecision" transform="matrix(1,0,0,1,-217,-115)" stroke-linecap="butt">
      <rect fill="none" x="482.5" width="5" height="5" y="602.5" clip-path="url(#clipPath2)"/>
    </g>
    <g fill="maroon" text-rendering="geometricPrecision" shape-rendering="geometricPrecision" transform="matrix(1,0,0,1,-217,-115)" stroke="maroon">
      <rect x="487.5" width="5" height="5" y="602.5" clip-path="url(#clipPath2)" stroke="none"/>
    </g>
    <g text-rendering="geometricPrecision" stroke-miterlimit="1.45" shape-rendering="geometricPrecision" transform="matrix(1,0,0,1,-217,-115)" stroke-linecap="butt">
      <rect fill="none" x="487.5" width="5" height="5" y="602.5" clip-path="url(#clipPath2)"/>
    </g>
    <g fill="maroon" text-rendering="geometricPrecision" shape-rendering="geometricPrecision" transform="matrix(1,0,0,1,-217,-115)" stroke="maroon">
      <rect x="492.321" width="5" height="5" y="607.5" clip-path="url(#clipPath2)" stroke="none"/>
    </g>
    <g text-rendering="geometricPrecision" stroke-miterlimit="1.45" shape-rendering="geometricPrecision" transform="matrix(1,0,0,1,-217,-115)" stroke-linecap="butt">
      <rect fill="none" x="492.321" width="5" height="5" y="607.5" clip-path="url(#clipPath2)"/>
    </g>
    <g fill="maroon" text-rendering="geometricPrecision" shape-rendering="geometricPrecision" transform="matrix(1,0,0,1,-217,-115)" stroke="maroon">
      <rect x="492.321" width="5" height="5" y="602.5" clip-path="url(#clipPath2)" stroke="none"/>
    </g>
    <g text-rendering="geometricPrecision" stroke-miterlimit="1.45" shape-rendering="geometricPrecision" transform="matrix(1,0,0,1,-217,-115)" stroke-linecap="butt">
      <rect fill="none" x="492.321" width="5" height="5" y="602.5" clip-path="url(#clipPath2)"/>
    </g>
    <g fill="maroon" text-rendering="geometricPrecision" shape-rendering="geometricPrecision" transform="matrix(1,0,0,1,-217,-115)" stroke="maroon">
      <rect x="497.5" width="5" height="5" y="597.5" clip-path="url(#clipPath2)" stroke="none"/>
    </g>
    <g text-rendering="geometricPrecision" stroke-miterlimit="1.45" shape-rendering="geometricPrecision" transform="matrix(1,0,0,1,-217,-115)" stroke-linecap="butt">
      <rect fill="none" x="497.5" width="5" height="5" y="597.5" clip-path="url(#clipPath2)"/>
    </g>
    <g fill="maroon" text-rendering="geometricPrecision" shape-rendering="geometricPrecision" transform="matrix(1,0,0,1,-217,-115)" stroke="maroon">
      <rect x="492.5" width="5" height="5" y="597.5" clip-path="url(#clipPath2)" stroke="none"/>
    </g>
    <g text-rendering="geometricPrecision" stroke-miterlimit="1.45" shape-rendering="geometricPrecision" transform="matrix(1,0,0,1,-217,-115)" stroke-linecap="butt">
      <rect fill="none" x="492.5" width="5" height="5" y="597.5" clip-path="url(#clipPath2)"/>
    </g>
    <g fill="maroon" text-rendering="geometricPrecision" shape-rendering="geometricPrecision" transform="matrix(1,0,0,1,-217,-115)" stroke="maroon">
      <rect x="487.5" width="5" height="5" y="597.5" clip-path="url(#clipPath2)" stroke="none"/>
    </g>
    <g text-rendering="geometricPrecision" stroke-miterlimit="1.45" shape-rendering="geometricPrecision" transform="matrix(1,0,0,1,-217,-115)" stroke-linecap="butt">
      <rect fill="none" x="487.5" width="5" height="5" y="597.5" clip-path="url(#clipPath2)"/>
    </g>
    <g fill="maroon" text-rendering="geometricPrecision" shape-rendering="geometricPrecision" transform="matrix(1,0,0,1,-217,-115)" stroke="maroon">
      <rect x="492.5" width="5" height="5" y="592.5" clip-path="url(#clipPath2)" stroke="none"/>
    </g>
    <g text-rendering="geometricPrecision" stroke-miterlimit="1.45" shape-rendering="geometricPrecision" transform="matrix(1,0,0,1,-217,-115)" stroke-linecap="butt">
      <rect fill="none" x="492.5" width="5" height="5" y="592.5" clip-path="url(#clipPath2)"/>
      <path fill="none" d="M457.5 160.5 L457.5 212" clip-path="url(#clipPath2)"/>
      <path d="M457.5 220 L462.5 208 L457.5 211 L452.5 208 Z" clip-path="url(#clipPath2)" stroke="none"/>
      <path fill="none" d="M457.5 250 L457.5 295.625" clip-path="url(#clipPath2)"/>
      <path d="M457.5 303.625 L462.5 291.625 L457.5 294.625 L452.5 291.625 Z" clip-path="url(#clipPath2)" stroke="none"/>
      <path fill="none" d="M539 145.5 L590 145.5 L590 489 L547 489" clip-path="url(#clipPath2)"/>
      <path d="M539 489 L551 494 L548 489 L551 484 Z" clip-path="url(#clipPath2)" stroke="none"/>
      <path fill="none" d="M457.5 504 L457.5 549" clip-path="url(#clipPath2)"/>
      <path d="M457.5 557 L462.5 545 L457.5 548 L452.5 545 Z" clip-path="url(#clipPath2)" stroke="none"/>
      <path fill="none" d="M457.5 333.625 L457.5 379.25" clip-path="url(#clipPath2)"/>
      <path d="M457.5 387.25 L462.5 375.25 L457.5 378.25 L452.5 375.25 Z" clip-path="url(#clipPath2)" stroke="none"/>
      <path fill="none" d="M457.5 417.25 L457.5 466" clip-path="url(#clipPath2)"/>
      <path d="M457.5 474 L462.5 462 L457.5 465 L452.5 462 Z" clip-path="url(#clipPath2)" stroke="none"/>
      <path fill="none" d="M457.5 587.0166 L457.5 632" clip-path="url(#clipPath2)"/>
      <path d="M457.5 640 L462.5 628 L457.5 631 L452.5 628 Z" clip-path="url(#clipPath2)" stroke="none"/>
      <path fill="none" d="M508.6996 547.0673 L508.6996 524.5 L481.8829 547.9227" clip-path="url(#clipPath2)"/>
      <path fill="none" d="M482.5 524.5 L506.1996 524.5" clip-path="url(#clipPath2)"/>
      <path fill="none" d="M496.8327 510.5149 L507.0821 522.5938" clip-path="url(#clipPath2)"/>
      <path fill="none" d="M493.4863 510.4144 L480 524.5 L480 549.5673 L506.1996 549.5673" clip-path="url(#clipPath2)"/>
    </g>
  </g>
</svg>
